<?xml version="1.0" standalone="no"?>
<!DOCTYPE svg PUBLIC "-//W3C//DTD SVG 20010904//EN"
 "http://www.w3.org/TR/2001/REC-SVG-20010904/DTD/svg10.dtd">
<svg version="1.0" xmlns="http://www.w3.org/2000/svg"
 width="512.000000pt" height="512.000000pt" viewBox="0 0 512.000000 512.000000"
 preserveAspectRatio="xMidYMid meet">
<metadata>
Created by potrace 1.14, written by Peter Selinger 2001-2017
</metadata>
<g transform="translate(0.000000,512.000000) scale(0.100000,-0.100000)"
fill="#000000" stroke="none">
<path d="M2427 4803 c-2 -1 -92 -13 -142 -18 -49 -5 -190 -31 -190 -35 0 -1
-9 -3 -20 -5 -11 -1 -40 -8 -65 -14 -25 -6 -52 -13 -60 -15 -34 -9 -177 -58
-207 -71 -17 -8 -34 -15 -37 -15 -8 0 -223 -105 -281 -137 -75 -42 -180 -115
-275 -190 -83 -66 -290 -265 -290 -279 0 -4 -8 -14 -18 -23 -54 -50 -197 -261
-259 -381 -15 -30 -31 -56 -35 -58 -5 -2 -8 -10 -8 -18 0 -7 -9 -30 -19 -51
-17 -32 -39 -82 -46 -103 -1 -3 -7 -18 -14 -35 -7 -16 -14 -34 -15 -40 -2 -5
-6 -17 -9 -25 -8 -22 -31 -93 -33 -105 -1 -5 -7 -30 -14 -55 -7 -25 -14 -53
-16 -62 -2 -10 -6 -28 -9 -40 -3 -13 -8 -39 -11 -58 -3 -19 -7 -41 -9 -48 -5
-13 -18 -125 -19 -154 0 -10 -5 -18 -10 -18 -6 0 -5 -5 2 -12 6 -6 8 -18 3
-27 -4 -9 -7 -73 -7 -143 1 -83 -2 -124 -9 -120 -5 3 -4 -2 4 -11 7 -9 11 -24
7 -32 -3 -8 0 -15 6 -15 7 0 7 -4 -1 -13 -6 -8 -8 -17 -4 -21 8 -8 12 -26 16
-86 2 -25 5 -50 8 -55 3 -6 6 -26 8 -45 2 -19 8 -43 13 -54 8 -14 7 -17 -4
-10 -10 6 -11 5 -2 -7 11 -13 29 -86 26 -101 -1 -5 2 -8 7 -8 4 0 7 -11 6 -25
-2 -14 0 -25 5 -25 4 0 11 -17 15 -37 6 -34 38 -124 70 -198 34 -79 43 -105
37 -105 -4 0 -1 -4 7 -9 8 -5 16 -17 17 -27 2 -9 7 -20 12 -23 6 -3 12 -15 14
-26 1 -11 12 -30 23 -43 11 -13 18 -26 17 -29 -2 -3 0 -9 5 -12 18 -13 44 -72
37 -84 -4 -6 -4 -9 1 -5 9 9 55 -41 55 -59 0 -7 5 -13 10 -13 6 0 10 -10 10
-22 0 -12 3 -19 6 -16 3 4 15 -3 26 -14 11 -11 17 -22 14 -25 -2 -3 9 -18 26
-33 17 -16 27 -33 23 -39 -4 -7 -1 -10 7 -9 7 2 12 -3 11 -9 -2 -7 1 -12 5
-10 13 3 102 -96 98 -109 -3 -6 3 -11 12 -10 10 0 16 -6 16 -16 -1 -9 4 -14
11 -12 7 3 19 -3 26 -13 8 -11 44 -43 81 -73 38 -29 68 -57 68 -62 0 -4 7 -8
15 -8 8 0 15 -3 15 -7 0 -5 29 -27 64 -51 49 -33 64 -48 61 -63 -2 -11 0 -17
6 -14 5 4 7 11 4 16 -11 16 6 10 52 -21 24 -16 49 -30 55 -30 6 0 22 -12 36
-27 13 -16 21 -22 17 -15 -4 7 29 -5 72 -28 44 -22 93 -45 109 -49 16 -5 28
-12 27 -17 -1 -5 10 -10 24 -11 14 0 28 -5 32 -10 3 -4 17 -10 31 -12 14 -1
27 -6 30 -10 5 -6 14 -9 52 -16 9 -2 26 -9 37 -15 12 -6 21 -9 21 -6 0 3 15 0
33 -5 40 -12 65 -19 97 -26 14 -3 28 -11 32 -17 5 -7 8 -6 8 3 0 9 4 10 12 4
7 -5 29 -10 48 -12 19 -2 40 -6 45 -9 6 -4 26 -7 45 -7 22 -1 34 -6 32 -13 -1
-9 3 -9 18 0 17 11 22 10 30 -2 5 -8 10 -10 10 -4 0 18 89 8 102 -11 5 -7 8
-7 8 0 0 12 211 11 231 0 8 -5 10 -4 5 3 -8 14 20 12 43 -2 10 -6 12 -5 7 2
-4 7 -1 12 6 13 7 0 21 2 31 4 9 2 17 -2 17 -8 0 -7 5 -6 10 3 8 12 11 13 19
1 5 -7 10 -9 12 -4 2 6 21 13 42 17 31 6 37 5 31 -6 -6 -9 -3 -9 10 1 9 8 30
15 44 16 15 1 33 5 40 9 7 4 16 5 21 1 5 -3 12 -1 16 5 3 5 16 9 28 9 22 -1
31 1 92 18 17 5 37 9 45 8 8 0 18 3 21 9 4 5 20 9 37 10 17 0 30 6 29 11 -1 6
4 9 12 7 7 -1 19 3 27 9 8 6 15 9 15 5 1 -3 2 -10 3 -15 0 -5 4 -13 8 -17 4
-3 6 3 3 15 -4 22 27 47 45 36 5 -3 11 -1 15 5 9 15 97 51 112 46 7 -3 12 0
10 7 -1 7 4 11 11 10 6 -2 12 1 12 6 0 9 54 35 66 31 4 -1 10 2 13 7 7 10 96
63 106 63 3 0 4 -4 0 -9 -3 -5 -1 -12 4 -15 4 -3 8 4 7 17 -1 16 4 22 20 21
14 0 20 4 17 13 -3 7 -1 13 4 13 6 0 31 16 56 35 47 36 63 44 51 23 -4 -7 -3
-8 5 -4 6 4 9 11 6 16 -7 11 30 32 39 22 4 -3 4 2 0 12 -5 12 -4 17 2 13 6 -3
17 3 24 14 8 10 18 19 23 19 4 0 34 26 66 57 32 32 79 77 104 100 26 24 43 43
39 43 -4 0 0 4 8 10 9 6 20 5 30 -3 13 -10 13 -10 1 5 -11 15 -10 22 15 50 15
18 31 32 36 31 4 -2 8 2 8 8 0 9 52 82 70 99 3 3 29 41 57 85 29 44 60 89 70
99 12 13 13 17 3 12 -13 -7 -13 -6 0 6 8 7 16 20 18 28 2 8 7 17 11 20 7 5 23
38 25 52 1 4 8 15 16 25 17 19 20 27 20 44 0 8 6 7 18 -2 15 -13 16 -12 4 3
-12 15 -11 23 4 57 10 22 20 38 23 37 3 -2 7 8 7 22 1 15 10 45 20 67 9 22 19
49 21 60 2 10 7 22 11 25 4 3 8 14 10 25 3 22 9 49 12 53 2 1 4 7 5 12 1 6 4
13 5 18 1 4 3 12 5 17 1 6 3 13 5 18 5 14 8 27 9 48 0 11 4 18 9 16 4 -3 8 11
9 31 0 21 4 51 7 67 9 50 20 138 20 172 1 18 4 33 7 33 4 0 5 14 3 30 -2 19 1
30 9 30 8 0 9 3 1 8 -12 8 -14 62 -1 62 4 0 5 5 1 12 -4 6 -8 50 -9 97 0 48
-5 92 -9 99 -4 7 -2 12 5 12 7 0 8 4 2 13 -5 6 -11 32 -12 56 -2 24 -5 54 -7
65 -2 12 -6 37 -9 56 -3 19 -8 46 -11 60 -3 14 -7 34 -9 45 -2 11 -4 20 -5 20
-1 0 -4 14 -6 30 -3 17 -7 37 -11 45 -3 8 -5 19 -4 23 0 4 -3 16 -8 26 -6 10
-12 29 -15 42 -15 71 -108 296 -174 419 -31 58 -146 241 -172 273 -258 325
-503 526 -830 683 -83 40 -205 91 -235 98 -5 2 -37 11 -70 21 -65 20 -69 21
-103 29 -12 3 -26 7 -31 10 -4 3 -23 8 -42 10 -19 3 -72 12 -119 20 -139 24
-197 29 -353 30 -82 1 -149 0 -150 -1z"/>
<path d="M570 1446 c0 -2 7 -7 16 -10 8 -3 12 -2 9 4 -6 10 -25 14 -25 6z"/>
<path d="M795 1131 c-3 -5 -2 -12 3 -15 5 -3 9 1 9 9 0 17 -3 19 -12 6z"/>
<path d="M1429 563 c-13 -16 -12 -17 4 -4 9 7 17 15 17 17 0 8 -8 3 -21 -13z"/>
<path d="M1567 519 c7 -7 15 -10 18 -7 3 3 -2 9 -12 12 -14 6 -15 5 -6 -5z"/>
<path d="M1655 480 c-3 -6 1 -7 9 -4 18 7 21 14 7 14 -6 0 -13 -4 -16 -10z"/>
<path d="M3436 427 c3 -10 9 -15 12 -12 3 3 0 11 -7 18 -10 9 -11 8 -5 -6z"/>
<path d="M1776 421 c-3 -5 2 -15 12 -22 15 -12 16 -12 5 2 -7 9 -10 19 -6 22
3 4 4 7 0 7 -3 0 -8 -4 -11 -9z"/>
<path d="M1935 380 c-3 -6 1 -7 9 -4 18 7 21 14 7 14 -6 0 -13 -4 -16 -10z"/>
<path d="M1970 359 c0 -5 5 -7 10 -4 6 3 10 8 10 11 0 2 -4 4 -10 4 -5 0 -10
-5 -10 -11z"/>
<path d="M3034 342 c4 -3 14 -7 22 -8 9 -1 13 0 10 4 -4 3 -14 7 -22 8 -9 1
-13 0 -10 -4z"/>
<path d="M2076 327 c3 -10 9 -15 12 -12 3 3 0 11 -7 18 -10 9 -11 8 -5 -6z"/>
<path d="M2855 301 c-3 -5 -2 -12 3 -15 5 -3 9 1 9 9 0 17 -3 19 -12 6z"/>
<path d="M2915 301 c-3 -5 -2 -12 3 -15 5 -3 9 1 9 9 0 17 -3 19 -12 6z"/>
<path d="M2680 280 c-8 -5 -10 -10 -5 -10 6 0 17 5 25 10 8 5 11 10 5 10 -5 0
-17 -5 -25 -10z"/>
</g>
</svg>
